<?xml version="1.0" encoding="utf-8"?>
<!-- Generator: Adobe Illustrator 18.0.0, SVG Export Plug-In . SVG Version: 6.00 Build 0)  -->
<!DOCTYPE svg PUBLIC "-//W3C//DTD SVG 1.1//EN" "http://www.w3.org/Graphics/SVG/1.1/DTD/svg11.dtd">
<svg version="1.1" id="Layer_1" xmlns="http://www.w3.org/2000/svg" xmlns:xlink="http://www.w3.org/1999/xlink" x="0px" y="0px"
	 viewBox="0 0 638 367.6" enable-background="new 0 0 638 367.6" xml:space="preserve">
<g id="clouds">
	<path fill="#D3EDED" d="M414.6,183.5c-3.8,0-7.4,1.3-10.2,3.5c-2.3-7.3-9.1-12.5-17.1-12.5c-9.9,0-18,8-18,18c0,0.1,0,0.1,0,0.2
		c-0.6-0.1-1.3-0.2-1.9-0.2c-6.7,0-12.1,5.4-12.1,12.1c0,6.7,5.4,12.1,12.1,12.1c3,0,5.8-1.1,8-3c0.7,1.9,2.6,3.3,4.8,3.3
		c2,0,3.7-1.1,4.6-2.7c2.1,4,6.2,6.7,11,6.7c4.6,0,8.7-2.5,10.8-6.3c2.4,1.3,5.1,2,8,2c9.1,0,16.6-7.4,16.6-16.6
		C431.1,190.9,423.7,183.5,414.6,183.5z"/>
	<path fill="#D3EDED" d="M73.9,59.1c3.8,0,7.4,1.3,10.2,3.5c2.3-7.3,9.1-12.5,17.1-12.5c9.9,0,18,8,18,18c0,0.1,0,0.1,0,0.2
		c0.6-0.1,1.3-0.2,1.9-0.2c6.7,0,12.1,5.4,12.1,12.1c0,6.7-5.4,12.1-12.1,12.1c-3,0-5.8-1.1-8-3c-0.7,1.9-2.6,3.3-4.8,3.3
		c-2,0-3.7-1.1-4.6-2.7c-2.1,4-6.2,6.7-11,6.7c-4.6,0-8.7-2.5-10.8-6.3c-2.4,1.3-5.1,2-8,2c-9.1,0-16.6-7.4-16.6-16.6
		C57.3,66.6,64.7,59.1,73.9,59.1z"/>
	<path fill="#D3EDED" d="M494.1,85.4c3.2,0,6.1,0.8,8.8,2.1c0.7-7.4,7-13.2,14.5-13.2c3.8,0,7.2,1.4,9.8,3.8c4-3,9-4.8,14.5-4.8
		c13.4,0,24.3,10.9,24.3,24.3c0,13.4-10.9,24.3-24.3,24.3c-8.2,0-15.5-4.1-19.9-10.3c-1.4,0.4-2.9,0.7-4.4,0.7
		c-1.7,0-3.4-0.3-4.9-0.9c-2.7,7.6-9.9,13-18.4,13c-10.8,0-19.5-8.7-19.5-19.5C474.6,94.1,483.4,85.4,494.1,85.4z"/>
</g>
<g id="mountain_2_">
	<polygon fill="#3C978A" points="447.1,326.7 309.6,88.6 172.1,326.7 	"/>
	<polygon fill="#1F5559" points="242.3,326.7 309.6,88.6 172.1,326.7 	"/>
	<polygon fill="#E8F5F4" points="359.1,174.4 260,174.4 309.6,88.6 	"/>
	<polygon fill="#C7C6C6" points="260,174.4 309.7,89 285.3,174.4 	"/>
</g>
<g id="sun">
	<circle fill="none" stroke="#FFD780" stroke-miterlimit="10" cx="385.4" cy="51.5" r="28.2"/>
	<line fill="none" stroke="#FFD780" stroke-miterlimit="10" x1="385.4" y1="14.6" x2="385.4" y2="19.6"/>
	<line fill="none" stroke="#FFD780" stroke-miterlimit="10" x1="421.3" y1="51.5" x2="416.3" y2="51.5"/>
	<line fill="none" stroke="#FFD780" stroke-miterlimit="10" x1="413.5" y1="27.5" x2="409.9" y2="31"/>
	<line fill="none" stroke="#FFD780" stroke-miterlimit="10" x1="357.2" y1="27.5" x2="360.7" y2="31"/>
	<line fill="none" stroke="#FFD780" stroke-miterlimit="10" x1="413.5" y1="75.1" x2="409.9" y2="71.6"/>
	<line fill="none" stroke="#FFD780" stroke-miterlimit="10" x1="357.2" y1="75.1" x2="360.7" y2="71.6"/>
	<line fill="none" stroke="#FFD780" stroke-miterlimit="10" x1="354.2" y1="51.5" x2="349.2" y2="51.5"/>
	<line fill="none" stroke="#FFD780" stroke-miterlimit="10" x1="385.4" y1="83.4" x2="385.4" y2="88.4"/>
	<path fill="#FFD780" d="M371.1,31.9l14.2,14.2l0-18.9c0,0,0,0,0,0c7.9,0,14.9,3.8,19.4,9.7l-19.4,19.4l0,19.5c0,0,0,0,0,0
		c-13.4,0-24.3-10.9-24.3-24.3C361.1,43.4,365,36.3,371.1,31.9z"/>
	<path fill="#FFEBB6" d="M371.1,31.9c4-2.9,8.9-4.6,14.3-4.6l0,18.9L371.1,31.9z"/>
	<path fill="#FFEBB6" d="M404.7,36.9c3.1,4.1,4.9,9.1,4.9,14.6c0,13.4-10.9,24.3-24.3,24.3l0-19.5L404.7,36.9z"/>
</g>
<g id="floor">
	<path fill="#E8F5F4" d="M608.7,325.2c3.2,0,6.4,1.2,8.9,3.7c2.5,2.5,3.7,5.7,3.7,8.9v1.4h-610v-1.4c0-3.2,1.2-6.4,3.7-8.9
		c2.5-2.5,5.7-3.7,8.9-3.7H608.7z"/>
	<path fill="#2F7B7D" d="M621.2,340.6c0,3.2-1.2,6.4-3.7,8.9c-2.5,2.5-5.7,3.7-8.9,3.7H23.8c-3.2,0-6.4-1.2-8.9-3.7
		c-2.5-2.5-3.7-5.7-3.7-8.9v-1.4h610V340.6z"/>
</g>
<g id="tree">
	<path fill="#E8F5F4" d="M483.3,252.5c2.2-20.5,10.3-44.2,17.9-61.7l12.7,12.7l-0.1-36.1c4.3,5.2,12.5,21.3,19.4,40.4l-19.4,19.4
		l-0.1,36.2l27.7-27.7c2.1,9.5,3.5,18.8,3.5,27.2c0,28.6-21.3,38.8-28.7,41.5l-0.1-19L483.3,252.5z"/>
	<path fill="#CAE9E6" d="M501.3,190.8c4.9-11.2,9.6-19.8,12.6-23.4h0l0.1,36.1L501.3,190.8z"/>
	<path fill="#CAE9E6" d="M513.9,227.2l19.4-19.4c3.2,8.9,6.1,18.5,8.3,27.9l-27.7,27.7L513.9,227.2z"/>
	<path fill="#CAE9E6" d="M482.7,262.9c0-3.3,0.2-6.8,0.6-10.4l32.9,33l0.1,19c-1.5,0.6-2.5,0.8-2.5,0.8S482.7,297.4,482.7,262.9z"/>
	<path fill="#62534C" d="M504.8,278.8l0.4-0.5c0.3-0.3,0.6-0.6,1.1-0.6c0.5-0.1,0.9,0.1,1.2,0.3l3.8,2.9v-4.7c0-0.4,0.2-0.9,0.5-1.2
		c0.3-0.3,0.8-0.5,1.2-0.5h0.6c0.4,0,0.9,0.2,1.2,0.5c0.3,0.3,0.5,0.8,0.5,1.2V294l4.9-3.8c0.3-0.3,0.8-0.4,1.2-0.3
		c0.5,0.1,0.8,0.3,1.1,0.6l0.4,0.5c0.3,0.3,0.4,0.8,0.3,1.2c-0.1,0.5-0.3,0.8-0.6,1.1l-7.3,5.6v26.2h-4v-39.3l-6.2-4.7
		c-0.3-0.3-0.6-0.6-0.6-1.1C504.4,279.6,504.5,279.1,504.8,278.8z"/>
</g>
<g id="house_1_">
	<path fill="#E8F5F4" d="M174.2,47.5c0.7,0,1.4,0.2,2,0.5c1.7-7.4,8.3-12.9,16.2-12.9c9.2,0,16.6,7.4,16.6,16.6
		c0,5.5-2.7,10.4-6.8,13.4c0.9,0.8,1.5,1.9,1.5,3.2c0,2-1.4,3.6-3.2,4c0.4,0.9,0.6,2,0.6,3c0,0,0,0,0,0c4.6,0.2,8.2,3.9,8.2,8.6
		c0,2.3-0.9,4.4-2.4,5.9c0.6,0.7,1,1.7,1,2.7c0,2.3-1.9,4.2-4.2,4.2c-2.3,0-4.2-1.9-4.2-4.2c0,0,0-0.1,0-0.1
		c-4.2-0.6-7.4-4.1-7.4-8.5c0,0,0,0,0,0c-4.2-0.2-7.6-3.4-8.1-7.4c-3.4-0.7-6-3.8-6-7.4c0-2.3,1-4.4,2.7-5.7c-2.1-2.2-3.7-4.9-4.4-8
		c-0.6,0.3-1.3,0.5-2,0.5c-2.3,0-4.2-1.9-4.2-4.2C170.1,49.4,171.9,47.5,174.2,47.5z"/>
	<rect x="49.4" y="196.4" fill="#F15C48" width="69.3" height="128.8"/>
	<rect x="180.7" y="196.4" fill="#F15C48" width="69.3" height="128.8"/>
	<rect x="116.1" y="216.2" fill="#62534C" width="67" height="109"/>
	<rect x="116.1" y="196.4" fill="#F15C48" width="67" height="22.4"/>
	<rect x="49.4" y="124.5" fill="#E8F5F4" width="200.6" height="71.9"/>
	<rect x="68.6" y="273" fill="#255663" width="30.9" height="32.2"/>
	<rect x="66.9" y="271.3" fill="#F3C878" width="1.7" height="35.6"/>
	<rect x="99.5" y="271.3" fill="#F3C878" width="1.7" height="35.6"/>
	<rect x="66.9" y="305.2" fill="#F3C878" width="34.2" height="1.7"/>
	<rect x="66.9" y="271.3" fill="#F3C878" width="34.2" height="1.7"/>
	<rect x="43.2" y="187.6" fill="#F15C48" width="6.2" height="137.5"/>
	<rect x="43.2" y="115.8" fill="#E8F5F4" width="6.2" height="71.9"/>
	<g>
		<defs>
			<rect id="SVGID_1_" x="68.6" y="273" width="30.9" height="32.2"/>
		</defs>
		<clipPath id="SVGID_2_">
			<use xlink:href="#SVGID_1_"  overflow="visible"/>
		</clipPath>
		<g clip-path="url(#SVGID_2_)">
			<polygon fill="#E5E5E5" points="96.4,313.6 103.1,313.6 77.2,258.2 70.6,258.2 			"/>
			<polygon fill="#E5E5E5" points="90.8,313.6 94.1,313.6 68.3,258.2 65,258.2 			"/>
		</g>
	</g>
	<path fill="#C7C6C6" d="M99.9,267.7h-7.9H84h-7.9h-7.9h-7.9v3.6c0,1.6,0.6,3.2,1.8,4.4c1.2,1.2,2.8,1.8,4.4,1.8h1.7h7.9H84h7.9h7.9
		h1.7c1.6,0,3.2-0.6,4.4-1.8c1.2-1.2,1.8-2.8,1.8-4.4v-3.6H99.9z"/>
	<g>
		<polygon fill="#6CC8BF" points="68.2,267.8 60.2,267.8 64.2,246.5 70.8,246.5 		"/>
		<polygon fill="#2F7B7D" points="76.1,267.8 68.2,267.8 70.8,246.5 77.4,246.5 		"/>
		<polygon fill="#6CC8BF" points="84,267.8 76.1,267.8 77.4,246.5 84,246.5 		"/>
		<polygon fill="#2F7B7D" points="91.9,267.8 84,267.8 84,246.5 90.6,246.5 		"/>
		<polygon fill="#6CC8BF" points="99.9,267.8 91.9,267.8 90.6,246.5 97.2,246.5 		"/>
		<polygon fill="#2F7B7D" points="107.8,267.8 99.9,267.8 97.2,246.5 103.8,246.5 		"/>
		<path fill="#6CC8BF" d="M68.2,274.8h-1.7c-1.6,0-3.2-0.6-4.4-1.8c-1.2-1.2-1.8-2.8-1.8-4.4v-0.8h7.9V274.8z"/>
		<rect x="68.2" y="267.8" fill="#2F7B7D" width="7.9" height="7"/>
		<rect x="76.1" y="267.8" fill="#6CC8BF" width="7.9" height="7"/>
		<rect x="84" y="267.8" fill="#2F7B7D" width="7.9" height="7"/>
		<rect x="91.9" y="267.8" fill="#6CC8BF" width="7.9" height="7"/>
		<path fill="#2F7B7D" d="M107.8,268.6c0,1.6-0.6,3.2-1.8,4.4c-1.2,1.2-2.8,1.8-4.4,1.8h-1.7v-7h7.9V268.6z"/>
		<path fill="#C7C6C6" d="M99.9,267.8h-7.9H84h-7.9h-7.9h-7.9v0.8c0,1.6,0.6,3.2,1.8,4.4c1.2,1.2,2.8,1.8,4.4,1.8h1.7h7.9H84h7.9
			h7.9h1.7c1.6,0,3.2-0.6,4.4-1.8c1.2-1.2,1.8-2.8,1.8-4.4v-0.8H99.9z"/>
	</g>
	<rect x="199.9" y="273" fill="#255663" width="30.9" height="32.2"/>
	<rect x="230.8" y="271.3" fill="#F3C878" width="1.7" height="35.6"/>
	<rect x="198.3" y="271.3" fill="#F3C878" width="1.7" height="35.6"/>
	<rect x="165" y="278.9" fill="#3A2F28" width="1.7" height="46.3"/>
	<rect x="160.2" y="226.9" fill="#3A2F28" width="1.7" height="38.7"/>
	<rect x="137.3" y="226.9" fill="#3A2F28" width="1.7" height="38.7"/>
	<rect x="132.5" y="278.9" fill="#3A2F28" width="1.7" height="46.3"/>
	<rect x="198.3" y="305.2" fill="#F3C878" width="34.2" height="1.7"/>
	<rect x="198.3" y="271.3" fill="#F3C878" width="34.2" height="1.7"/>
	<rect x="250" y="187.6" fill="#F15C48" width="6.2" height="137.5"/>
	<rect x="250" y="115.8" fill="#E8F5F4" width="6.2" height="71.9"/>
	<rect x="49.4" y="196.4" fill="#C7C6C6" width="200.6" height="2.6"/>
	<g>
		<defs>
			<rect id="SVGID_3_" x="199.9" y="273" width="30.9" height="32.2"/>
		</defs>
		<clipPath id="SVGID_4_">
			<use xlink:href="#SVGID_3_"  overflow="visible"/>
		</clipPath>
		<g clip-path="url(#SVGID_4_)">
			<polygon fill="#E5E5E5" points="227.8,313.6 234.4,313.6 208.6,258.2 201.9,258.2 			"/>
			<polygon fill="#E5E5E5" points="222.1,313.6 225.5,313.6 199.6,258.2 196.3,258.2 			"/>
		</g>
	</g>
	<path fill="#C7C6C6" d="M199.5,267.7h7.9h7.9h7.9h7.9h7.9v3.6c0,1.6-0.6,3.2-1.8,4.4c-1.2,1.2-2.8,1.8-4.4,1.8h-1.7h-7.9h-7.9h-7.9
		h-7.9h-1.7c-1.6,0-3.2-0.6-4.4-1.8c-1.2-1.2-1.8-2.8-1.8-4.4v-3.6H199.5z"/>
	<g>
		<polygon fill="#6CC8BF" points="231.2,267.8 239.1,267.8 235.2,246.5 228.6,246.5 		"/>
		<polygon fill="#2F7B7D" points="223.3,267.8 231.2,267.8 228.6,246.5 222,246.5 		"/>
		<polygon fill="#6CC8BF" points="215.4,267.8 223.3,267.8 222,246.5 215.4,246.5 		"/>
		<polygon fill="#2F7B7D" points="207.4,267.8 215.4,267.8 215.4,246.5 208.8,246.5 		"/>
		<polygon fill="#6CC8BF" points="199.5,267.8 207.4,267.8 208.8,246.5 202.2,246.5 		"/>
		<polygon fill="#2F7B7D" points="191.6,267.8 199.5,267.8 202.2,246.5 195.5,246.5 		"/>
		<path fill="#6CC8BF" d="M231.2,274.8h1.7c1.6,0,3.2-0.6,4.4-1.8c1.2-1.2,1.8-2.8,1.8-4.4v-0.8h-7.9V274.8z"/>
		<rect x="223.3" y="267.8" fill="#2F7B7D" width="7.9" height="7"/>
		<rect x="215.4" y="267.8" fill="#6CC8BF" width="7.9" height="7"/>
		<rect x="207.4" y="267.8" fill="#2F7B7D" width="7.9" height="7"/>
		<rect x="199.5" y="267.8" fill="#6CC8BF" width="7.9" height="7"/>
		<path fill="#2F7B7D" d="M191.6,268.6c0,1.6,0.6,3.2,1.8,4.4c1.2,1.2,2.8,1.8,4.4,1.8h1.7v-7h-7.9V268.6z"/>
		<path fill="#C7C6C6" d="M199.5,267.8h7.9h7.9h7.9h7.9h7.9v0.8c0,1.6-0.6,3.2-1.8,4.4c-1.2,1.2-2.8,1.8-4.4,1.8h-1.7h-7.9h-7.9
			h-7.9h-7.9h-1.7c-1.6,0-3.2-0.6-4.4-1.8c-1.2-1.2-1.8-2.8-1.8-4.4v-0.8H199.5z"/>
	</g>
	<rect x="49.4" y="210.7" fill="#E8F5F4" width="200.6" height="4.5"/>
	<rect x="49.4" y="217.1" fill="#E8F5F4" width="200.6" height="3.5"/>
	<rect x="49.4" y="215.2" fill="#CAE9E6" width="200.6" height="1.9"/>
	<rect x="250" y="202.1" fill="#E8F5F4" width="6.2" height="4.5"/>
	<rect x="250" y="208.4" fill="#E8F5F4" width="6.2" height="3.5"/>
	<rect x="250" y="206.6" fill="#CAE9E6" width="6.2" height="1.9"/>
	<rect x="43.2" y="202.1" fill="#E8F5F4" width="6.2" height="4.5"/>
	<rect x="43.2" y="208.4" fill="#E8F5F4" width="6.2" height="3.5"/>
	<rect x="43.2" y="206.6" fill="#CAE9E6" width="6.2" height="1.9"/>
	<polygon fill="#F15C48" points="216.5,113.6 211.6,113.6 211.6,144.5 195.6,144.5 195.6,113.6 190.7,113.6 190.7,108.2 
		216.5,108.2 	"/>
	<path fill="#E8F5F4" d="M217.4,108.1c0.1,0.9,0,1.6-0.3,1.8c-1.8,1-5.1-0.8-6.9-1c-2.3-0.2-4.8,0.6-7.1,0.9
		c-2.3,0.3-4.4-0.5-6.7-0.1c-2.7,0.5-6.5,2-6.6-1.9c-0.1-3.5,1.2-4.9,4.6-4.9c3-0.1,6,0,9,0c2,0,4.1,0,6.1,0c1.5,0,3.9-0.5,5.3-0.2
		C217,103.1,217.2,106.2,217.4,108.1z"/>
	<rect x="195.6" y="113.6" fill="#C7C6C6" width="16" height="2.6"/>
	<rect x="134.2" y="278.9" fill="#F3C878" width="30.8" height="46.3"/>
	<rect x="129.6" y="273" fill="#3A2F28" width="40.1" height="5.9"/>
	<rect x="132.5" y="278.9" fill="#C7C6C6" width="34.1" height="1.6"/>
	<rect x="195.5" y="312.2" fill="#C7C6C6" width="39.6" height="1.6"/>
	<rect x="64.2" y="312.2" fill="#C7C6C6" width="39.6" height="1.6"/>
	<rect x="123.5" y="265.7" fill="#C7C6C6" width="52.3" height="1.6"/>
	<rect x="49.4" y="124.5" fill="#C7C6C6" width="2.6" height="200.6"/>
	<rect x="247.4" y="124.5" fill="#C7C6C6" width="2.6" height="200.6"/>
	<rect x="139" y="226.9" fill="#255663" width="21.2" height="37.1"/>
	<rect x="170.1" y="248.4" fill="#F3C878" width="5.6" height="17.3"/>
	<rect x="123.6" y="248.4" fill="#F3C878" width="5.6" height="17.3"/>
	<rect x="137.3" y="264" fill="#3A2F28" width="24.6" height="1.7"/>
	<rect x="137.3" y="225.3" fill="#3A2F28" width="24.6" height="1.7"/>
	<rect x="125.5" y="264" fill="#F3C878" width="48.2" height="1.7"/>
	<rect x="125.5" y="260.1" fill="#F3C878" width="48.2" height="0.8"/>
	<rect x="125.5" y="256.2" fill="#F3C878" width="48.2" height="0.8"/>
	<rect x="125.5" y="252.2" fill="#F3C878" width="48.2" height="0.8"/>
	<g>
		<rect x="165" y="252.2" fill="#F3C878" width="0.8" height="11.7"/>
		<rect x="159.8" y="252.2" fill="#F3C878" width="0.8" height="11.7"/>
		<rect x="154.5" y="252.2" fill="#F3C878" width="0.8" height="11.7"/>
		<rect x="149.2" y="252.2" fill="#F3C878" width="0.8" height="11.7"/>
		<rect x="143.9" y="252.2" fill="#F3C878" width="0.8" height="11.7"/>
		<rect x="138.7" y="252.2" fill="#F3C878" width="0.8" height="11.7"/>
		<rect x="133.4" y="252.2" fill="#F3C878" width="0.8" height="11.7"/>
	</g>
	<rect x="169.6" y="248" fill="#E8F5F4" width="6.7" height="2.9"/>
	<rect x="123" y="248" fill="#E8F5F4" width="6.7" height="2.9"/>
	<rect x="131.1" y="316.7" fill="#E8F5F4" width="37" height="2.8"/>
	<rect x="128" y="319.5" fill="#CAE9E6" width="43.3" height="2.8"/>
	<rect x="125.7" y="322.3" fill="#E8F5F4" width="47.8" height="2.8"/>
	<rect x="195.5" y="306.9" fill="#3A2F28" width="39.6" height="5.3"/>
	<rect x="64.2" y="306.9" fill="#3A2F28" width="39.6" height="5.3"/>
	<circle fill="#3A2F28" cx="160.8" cy="300.8" r="2"/>
	<circle fill="#6CC8BF" cx="156.9" cy="245.5" r="2"/>
	<polygon fill="#F15C48" points="146.1,154.8 113.6,188.4 185.8,188.4 153.3,154.8 	"/>
</g>
<g id="tree_1_">
	<g>
		<path fill="#E8F5F4" d="M562.3,257l8,8l0.1-10.6c4.6,0.1,8.6,2.5,10.9,6.1l-11.1,11.1l0.1,9.1c0,0-0.1,0-0.1,0
			c-7.2,0-13.1-5.9-13.1-13.1C557.1,263.2,559.1,259.4,562.3,257z"/>
		<path fill="#CAE9E6" d="M562.3,257c2.2-1.7,4.9-2.6,7.9-2.6c0.1,0,0.1,0,0.2,0l-0.1,10.6L562.3,257z"/>
		<path fill="#CAE9E6" d="M581.3,260.4c1.3,2,2,4.4,2,7c0,7.2-5.8,13.1-13,13.1l-0.1-9.1L581.3,260.4z"/>
	</g>
	<g>
		<path fill="#E8F5F4" d="M584,238.5l8,8l0.1-10.6c4.6,0.1,8.6,2.5,10.9,6.1L591.8,253l0.1,9.1c0,0-0.1,0-0.1,0
			c-7.2,0-13.1-5.9-13.1-13.1C578.7,244.7,580.8,240.9,584,238.5z"/>
		<path fill="#CAE9E6" d="M584,238.5c2.2-1.7,4.9-2.6,7.9-2.6c0.1,0,0.1,0,0.2,0l-0.1,10.6L584,238.5z"/>
		<path fill="#CAE9E6" d="M602.9,241.9c1.3,2,2,4.4,2,7c0,7.2-5.8,13.1-13,13.1l-0.1-9.1L602.9,241.9z"/>
	</g>
	<g>
		<path fill="#E8F5F4" d="M605.3,270.5l8,8l0.1-10.6c4.6,0.1,8.6,2.5,10.9,6.1L613.2,285l0.1,9.1c0,0-0.1,0-0.1,0
			c-7.2,0-13.1-5.9-13.1-13.1C600.1,276.7,602.1,272.9,605.3,270.5z"/>
		<path fill="#CAE9E6" d="M605.3,270.5c2.2-1.7,4.9-2.6,7.9-2.6c0.1,0,0.1,0,0.2,0l-0.1,10.6L605.3,270.5z"/>
		<path fill="#CAE9E6" d="M624.3,274c1.3,2,2,4.4,2,7c0,7.2-5.8,13.1-13,13.1l-0.1-9.1L624.3,274z"/>
	</g>
	<path fill="#62534C" d="M569.7,267.8l0.4-0.5c0.3-0.3,0.6-0.6,1.1-0.6c0.5-0.1,0.9,0.1,1.2,0.3l17.5,13.9v-30.2
		c0-0.4,0.2-0.9,0.5-1.2c0.3-0.3,0.8-0.5,1.2-0.5h0.6c0.4,0,0.9,0.2,1.2,0.5c0.3,0.3,0.5,0.8,0.5,1.2V294l17.1-13.8
		c0.3-0.3,0.8-0.4,1.2-0.3c0.5,0.1,0.8,0.3,1.1,0.6l0.4,0.5c0.3,0.3,0.4,0.8,0.3,1.2c-0.1,0.5-0.3,0.8-0.6,1.1L593.8,299v26.2h-4
		v-39.3L570,270.1c-0.3-0.3-0.6-0.6-0.6-1.1C569.3,268.6,569.4,268.1,569.7,267.8z"/>
</g>
<g id="garage_1_">
	<g id="garage">
		<rect x="277.5" y="237.2" fill="#F3C878" width="138" height="87.9"/>
		<rect x="287.9" y="254.6" fill="#F15C48" width="117.2" height="70.6"/>
		<g>
			<rect x="287.9" y="259.2" fill="#C7C6C6" width="117.2" height="3.4"/>
			<rect x="287.9" y="268.8" fill="#C7C6C6" width="117.2" height="3.4"/>
			<rect x="287.9" y="278.5" fill="#C7C6C6" width="117.2" height="3.4"/>
			<rect x="287.9" y="288.2" fill="#C7C6C6" width="117.2" height="3.4"/>
			<rect x="287.9" y="297.8" fill="#C7C6C6" width="117.2" height="3.4"/>
			<rect x="287.9" y="307.5" fill="#C7C6C6" width="117.2" height="3.4"/>
			<rect x="287.9" y="317.2" fill="#C7C6C6" width="117.2" height="3.4"/>
		</g>
		<rect x="284.9" y="247.2" fill="#3A2F28" width="123.1" height="7.3"/>
		<rect x="284.9" y="254.5" fill="#3A2F28" width="3" height="70.7"/>
		<rect x="405.1" y="254.5" fill="#3A2F28" width="3" height="70.7"/>
		<rect x="268.1" y="229.2" fill="#E8F5F4" width="156.7" height="8"/>
	</g>
	<rect x="277.5" y="237.2" fill="#C7C6C6" width="138" height="2.6"/>
</g>
<g id="mailbox">
	<rect x="433.7" y="281.9" fill="#3A2F28" width="4" height="43.3"/>
	<path fill="#F15C48" d="M450.1,281.9h-28.8v-14.3c0-1.1,0.4-2.1,1.1-3h27.7V281.9z"/>
	<rect x="433.7" y="281.9" fill="#C7C6C6" width="4" height="2.6"/>
	<rect x="426.5" y="267.7" fill="#CAE9E6" width="18.5" height="9"/>
	<text transform="matrix(-1 0 0 1 442.8031 274.4725)" fill="#255663" font-family="'OpenSans-Bold'" font-size="7">13B</text>
	<path fill="#E8F5F4" d="M426.3,262.6h23.8v2h-27.7c0.1-0.2,0.3-0.3,0.4-0.5C423.8,263,425.1,262.6,426.3,262.6z"/>
	<rect x="450.1" y="264.5" fill="#F3C878" width="2.7" height="17.4"/>
	<rect x="450.1" y="262.6" fill="#E8F5F4" width="2.7" height="2"/>
	<path fill="#F15C48" d="M468,279.9c0,0.5-0.2,1-0.6,1.4c-0.4,0.4-0.9,0.6-1.4,0.6h-13.2v-2.6H468V279.9z"/>
</g>
</svg>
