<?xml version="1.0" encoding="utf-8"?>
<!-- Generator: Adobe Illustrator 18.0.0, SVG Export Plug-In . SVG Version: 6.00 Build 0)  -->
<!DOCTYPE svg PUBLIC "-//W3C//DTD SVG 1.1//EN" "http://www.w3.org/Graphics/SVG/1.1/DTD/svg11.dtd">
<svg version="1.1" id="Layer_1" xmlns="http://www.w3.org/2000/svg" xmlns:xlink="http://www.w3.org/1999/xlink" x="0px" y="0px"
	 viewBox="0 0 364 177.3" enable-background="new 0 0 364 177.3" xml:space="preserve">
<path fill="#FFCE57" d="M75.9,70.1C73.8,69.5,61,95.7,61,95.7c-7.4-4.2-32.7,2.5-46.5,0.3c-1.8-0.3-11.6-3-10.7-1.4c0,0,0,0.1,0,0.1
	c5.8,7.6,29,14,44.7,23.5c14.2,8.6,12.4,7.3,24.4,16.2c0,0,0,0,0,0c1,8.8,4.8,18.6,9.8,25.2c5.4,7.2,14.2,10.5,21.6,12.6
	c19,5.3,39.3,1,58.1-2.8c22.5-4.6,45.4-7.2,67.9-11.8c24-4.9,59.7-2,82.9-11.5c19.4-7.9,27-29.7,38.7-52.2
	c10.2-19.7,11-46.6,3.2-68.2c-6.5-18.1-20.5-21.5-34.5-22.4c-24.4-1.5-48.6,1.1-72.8,4c-13,1.6-26.1,2.5-39,4.1
	c-13,1.6-25.8,5.4-38.6,8.3c-8.7,2-17.5,3.5-26.3,4.1c-0.2,0-0.4,0.1-0.6,0.2c-0.4,0.3-0.8,0.6-1.2,0.7c-3,0.5-5.9,1.1-8.8,2.1
	c-0.1,0-0.2,0-0.3,0.1c-7.9,1.4-15.9,3.9-23.3,8c-0.1,0-0.1,0.1-0.2,0.1C95.2,41.1,81.9,51.1,75.9,70.1"/>
</svg>
