<?xml version="1.0" encoding="utf-8"?>
<!-- Generator: Adobe Illustrator 18.0.0, SVG Export Plug-In . SVG Version: 6.00 Build 0)  -->
<!DOCTYPE svg PUBLIC "-//W3C//DTD SVG 1.1//EN" "http://www.w3.org/Graphics/SVG/1.1/DTD/svg11.dtd">
<svg version="1.1" id="Layer_1" xmlns="http://www.w3.org/2000/svg" xmlns:xlink="http://www.w3.org/1999/xlink" x="0px" y="0px"
	 viewBox="0 0 253.6 136.8" enable-background="new 0 0 253.6 136.8" xml:space="preserve">
<path fill="#52B4AB" d="M0.1,106.2c0-0.2,0.1-0.3,0.2-0.3C1,98.7,2.8,91.6,2.8,84.3c0-11,0.5-22,0.8-32.9C3.8,42.9,4.9,34.5,5.4,26
	c0.2-3.2,0.4-7,1.6-10.2c0.4-2.6,1.1-5.2,2.5-7.5c0-0.1,0.1-0.1,0.1-0.1C9.6,8,9.6,7.9,9.7,7.8c0.3-0.4,0.6-0.7,1-1
	c0.1-0.1,0.2-0.1,0.3-0.1c0.6-0.7,1.2-1.4,1.9-2c3.6-3.1,8.8-4,13.4-4.4c5.8-0.5,11.6-0.1,17.4,0.4C52.1,1.3,60.6,1.4,69,1.6
	c22.4,0.4,44.9,0,67.3,0.6c11.3,0.3,22.7,0.4,33.9,1.3c10.3,0.8,20.8,2.3,31.1,2.2c0.5,0,1-0.1,1.4-0.1c0.2,0,0.4,0,0.6-0.1
	c0.1,0,0.2,0,0.2,0.1c21.9,0.3,18.2,33.8,18.1,48.7c4.7,3,8.8,5.2,14.7,5c6.1-0.2,11.5-3.6,14.6-8.8c0,0,0-0.1-0.1-0.1
	c0.1-0.1,0.2-0.1,0.3-0.2c0.1,0.1,0.1,0.2,0.2,0.3c0,0,0,0,0,0c9.8,19-14.3,39.3-32.9,34.5c-1.4,4.7-1.1,9.8-1,14.6
	c0.2,6-0.9,12.2-1.8,18.1c-0.7,4.7-1.7,8.8-5.2,12.2c-2.9,2.9-7,4.3-10.8,5.1c-11.1,2.5-23.2,1.6-34.5,1.6c-13,0-26-0.5-38.9-1.9
	c0,0-0.1,0-0.1,0c-1.2-0.1-2.5-0.3-3.7-0.5c-0.1,0-0.2-0.1-0.2-0.1c-15.6,0.2-31.3-2.2-46.8-3.2c-12.2-0.8-24.3-0.4-36.5-0.4
	c-13.8,0-34.5-2.2-38.4-17.1c-0.2,0-0.5-0.1-0.5-0.4c-0.1-1-0.1-2-0.1-3C0,108.9,0,107.6,0.1,106.2z"/>
</svg>
