<?xml version="1.0" encoding="utf-8"?>
<!-- Generator: Adobe Illustrator 18.0.0, SVG Export Plug-In . SVG Version: 6.00 Build 0)  -->
<!DOCTYPE svg PUBLIC "-//W3C//DTD SVG 1.1//EN" "http://www.w3.org/Graphics/SVG/1.1/DTD/svg11.dtd">
<svg version="1.1" id="Layer_1" xmlns="http://www.w3.org/2000/svg" xmlns:xlink="http://www.w3.org/1999/xlink" x="0px" y="0px"
	 viewBox="0 0 253.6 112" enable-background="new 0 0 253.6 112" xml:space="preserve">
<path fill="#F36B35" d="M13.9,99.8c6.6,5.8,14.6,7.5,22.8,7.4c10.6-0.1,21.2-0.7,31.8-1.3c23.4-1.3,46.8-3.6,70.2-4.5
	c11.6-0.5,23.3-0.4,35-0.8c11.1-0.4,22.6-0.7,33.4-3.1c5.2-1.2,10.1-3.2,14-7c3.6,2.9,8.2,4.4,12.7,4.3c7.5-0.2,14.2-4.9,18.7-11
	c0.3-0.5,0-1.3-0.6-1.3c-8.2-0.2-17.1-5-22-12.5c0.2-1.4,0.3-2.7,0.4-4.1c0.7-15-3-33.3-14-43.8c-6.8-6.4-15-10.4-23.7-12.2
	c-4.4-0.9-8.9-1.6-13.4-1.8c-10.4-1.5-21-1.7-31.5-1.3c-16.9,0.6-33.7,2.1-50.5,3.5c-14.9,1.3-29.7,2.8-44.7,3.4
	c-10.7,0.4-21.8,0.6-32,4.2c-5.6,2-11.1,5-14.3,10.6c-4,6.8-4.8,16-5,24C0.8,68.2,1.2,88.8,13.9,99.8z"/>
</svg>
