<?xml version="1.0" encoding="utf-8"?>
<!-- Generator: Adobe Illustrator 18.0.0, SVG Export Plug-In . SVG Version: 6.00 Build 0)  -->
<!DOCTYPE svg PUBLIC "-//W3C//DTD SVG 1.1//EN" "http://www.w3.org/Graphics/SVG/1.1/DTD/svg11.dtd">
<svg version="1.1" id="Layer_1" xmlns="http://www.w3.org/2000/svg" xmlns:xlink="http://www.w3.org/1999/xlink" x="0px" y="0px"
	 viewBox="0 0 249.1 149.3" enable-background="new 0 0 249.1 149.3" xml:space="preserve">
<path fill="#134B58" d="M17,101c3.7,4.5,9.1,7.6,14.9,9.3c1.7,0.5,3.3,0.7,5,0.8c0.3,0.6,0.5,1.1,0.8,1.7
	c13.7,28,54.8,29.1,83.1,27.6c15.8-0.9,31.9-2.1,47.6-4.4c4.5-0.7,9-1.5,13.4-2.7c1-0.2,1.9-0.4,2.9-0.6c0.3-0.1,2-0.4,3.8-0.8
	c2.1-0.4,4.2-0.8,6.3-1.4c0.9-0.2,2.7-0.5,4-1.2c12.9-3.4,24.4-12.1,32.3-21.8c11.5-14.1,12.8-34.2,7.4-50.7
	c-10.2-31.5-52.4-42.6-84-44.9c-30.5-2.2-65.6,1-91.1,17.9c-13.1,8.8-21.5,20.6-26.3,34.7c-1.6,4.6-2.8,9.4-3.5,14.3
	C30.6,79,27,78.7,24,77.8c-6.1-1.8-12-5.3-16-10c0-0.1,0-0.2,0-0.3c0-1.1-1.2-1.2-1.2,0C6.6,79.4,8.8,91.2,17,101z"/>
</svg>
